<svg width="48" height="48" viewBox="0 0 48 48" fill="none" xmlns="http://www.w3.org/2000/svg">
<g clip-path="url(#clip0_264_752)">
<path d="M46.9639 23.9988C46.9639 21.1561 46.4275 18.4447 45.4926 15.9298C45.2452 24.2077 36.8676 30.6167 31.9491 34.8579H44.2605C45.9814 31.6195 46.9639 27.9251 46.9639 23.9988ZM38.0637 5.7717C34.1657 2.72378 29.2783 0.89093 23.9551 0.89093C11.2473 0.89093 0.945435 11.2372 0.945435 23.9988C0.945435 36.7602 11.2473 47.1062 23.9551 47.1062C29.7742 47.1062 35.0728 44.9197 39.1248 41.3413H22.4665L22.4157 36.4283C32.4529 27.6652 38.6059 21.7388 38.6059 16.0144C38.6059 13.887 37.799 11.2023 34.1679 11.2023C31.2926 11.2023 28.5189 12.875 29.023 19.8645H23.1728C21.7098 11.7606 26.0979 5.32694 34.4697 5.32694C35.7676 5.32694 36.9682 5.48255 38.0637 5.7717Z" fill="#99CA3B"/>
</g>
<defs>
<clipPath id="clip0_264_752">
<rect width="46.2182" height="46.2182" fill="white" transform="translate(0.945435 0.89093)"/>
</clipPath>
</defs>
</svg>
