<svg width="32" height="44" viewBox="0 0 32 44" fill="none" xmlns="http://www.w3.org/2000/svg">
<path fill-rule="evenodd" clip-rule="evenodd" d="M32 15.6232L31.9998 15.7082C31.9996 15.744 31.9992 15.7798 31.9988 15.8156C31.9996 15.8574 32 15.8996 32 15.942C32 22.6146 26.8014 28.5208 23.3228 32.4734C22.3134 33.6202 21.4488 34.6026 20.898 35.3914C18.9388 38.1972 17.9048 41.2368 17.6326 42.4058C17.6326 43.2862 16.9018 44 16 44C15.0982 44 14.3674 43.2862 14.3674 42.4058C14.0952 41.2368 13.0612 38.1972 11.102 35.3914C10.5512 34.6026 9.6866 33.6202 8.6772 32.4734C5.1986 28.5208 0 22.6146 0 15.942C0 15.8996 0.000399722 15.8574 0.00119972 15.8156C0.000399722 15.7516 0 15.6874 0 15.6232C0 6.99472 7.1634 0 16 0C24.8366 0 32 6.99472 32 15.6232ZM16 21.3624C19.4264 21.3624 22.204 18.65 22.204 15.3044C22.204 11.9586 19.4264 9.24638 16 9.24638C12.5736 9.24638 9.796 11.9586 9.796 15.3044C9.796 18.65 12.5736 21.3624 16 21.3624Z" fill="#34A851"/>
</svg>
