<svg width="37" height="45" viewBox="0 0 37 45" fill="none" xmlns="http://www.w3.org/2000/svg">
<path d="M18.4033 0.41748C8.55413 0.41748 0.570312 8.40129 0.570312 18.2505C0.570312 23.1733 2.56497 27.6307 5.7909 30.8576C9.01782 34.0863 16.62 38.7585 17.0658 43.6626C17.1327 44.3979 17.665 45 18.4032 45C19.1416 45 19.6739 44.3978 19.7407 43.6626C20.1865 38.7585 27.7887 34.0863 31.0156 30.8576C34.2416 27.6307 36.2362 23.1734 36.2362 18.2505C36.2364 8.40129 28.2526 0.41748 18.4033 0.41748Z" fill="#FF4433"/>
<path d="M18.4033 24.4922C21.8505 24.4922 24.6448 21.6977 24.6448 18.2506C24.6448 14.8034 21.8505 12.009 18.4033 12.009C14.9562 12.009 12.1617 14.8034 12.1617 18.2506C12.1617 21.6977 14.9562 24.4922 18.4033 24.4922Z" fill="white"/>
</svg>
