<svg width="1500" height="271" viewBox="0 0 1500 271" fill="none" xmlns="http://www.w3.org/2000/svg">
  <!-- V -->
  <g id="letter-v" transform="translate(0,0)">
    <path d="M42.7601 270.164L0.273735 -0.00585938H77.6207L92.509 158.319L107.397 -0.00585938H178.208L139.353 270.164H42.7601Z" fill="#EFEFEF"/>
  </g>
  
  <!-- E -->
  <g id="letter-e" transform="translate(180,0)">
    <path d="M0.0478516 -0.00585938H124.239V64.9946H70.8584V97.3133H114.797V163.766H70.8584V204.437H126.054V270.164H0.0478516V-0.00585938Z" fill="#EFEFEF"/>
  </g>
  
  <!-- R -->
  <g id="letter-r1" transform="translate(320,0)">
    <path d="M72.7844 51.5587V106.755H78.5945C83.6783 106.755 86.2202 103.608 86.2202 97.3133V61.3633C86.2202 57.732 85.7361 55.1901 84.7677 53.7375C83.7994 52.285 81.8627 51.5587 78.9576 51.5587H72.7844ZM72.7844 164.856V270.164H0.158173V-0.00585938H113.092C126.165 -0.00585938 136.938 4.23067 145.411 12.7037C154.126 21.1768 158.483 33.7653 158.483 50.4694V77.3411C158.483 100.097 149.889 115.591 132.701 123.822C139.722 126.485 145.895 131.327 151.221 138.347C156.547 145.126 159.21 153.114 159.21 162.314V249.102C159.21 257.817 160.42 264.233 162.841 268.348V270.164H91.3041C87.9149 265.564 86.2202 259.754 86.2202 252.733V174.66C86.2202 171.271 85.7361 168.85 84.7677 167.398C83.7994 165.703 81.7417 164.856 78.5945 164.856H72.7844Z" fill="#EFEFEF"/>
  </g>
  
  <!-- S -->
  <g id="letter-s" transform="translate(490,0)">
    <path d="M75.2844 0H92.3516C138.106 0 160.983 19.246 160.983 57.7379V85.699H90.899V61.7323C90.899 55.6801 88.4782 52.654 83.6364 52.654C78.7947 52.654 76.3738 55.6801 76.3738 61.7323V69.7212C76.3738 77.7101 80.0051 84.2464 87.2677 89.3303L121.765 113.66C137.501 124.554 148.516 135.569 154.81 146.705C161.104 157.599 164.252 171.882 164.252 189.554V203.717C164.252 226.473 157.957 244.629 145.369 258.186C133.022 271.501 114.139 278.158 88.7202 278.158H71.6531C24.2039 278.158 0.47937 256.976 0.47937 214.611V177.208H71.6531V208.8C71.6531 216.305 74.195 220.057 79.2788 220.057C84.3626 220.057 86.9046 216.063 86.9046 208.074V198.27C86.9046 191.975 86.1783 187.255 84.7258 184.108C83.2732 180.718 79.763 176.966 74.195 172.85L39.6975 148.521C15.0046 131.09 2.65814 107.487 2.65814 77.7101V63.9111C2.65814 44.302 8.58928 28.8084 20.4516 17.4303C32.5559 5.8101 50.8335 0 75.2844 0Z" fill="#EFEFEF"/>
  </g>
  
  <!-- H -->
  <g id="letter-h" transform="translate(670,0)">
    <path d="M73.1559 166.671V270.164H0.529724V-0.00585938H73.1559V92.2294H88.7706V-0.00585938H161.397V270.164H88.7706V166.671H73.1559Z" fill="#EFEFEF"/>
  </g>
  
  <!-- I -->
  <g id="letter-i" transform="translate(850,0)">
    <path d="M72.7922 -0.00585938V270.164H0.165955V-0.00585938H72.7922Z" fill="#EFEFEF"/>
  </g>
  
  <!-- N -->
  <g id="letter-n" transform="translate(930,0)">
    <path d="M0.856323 -0.00585938H72.7563L100.717 122.732V-0.00585938H161.723V270.164H96.3598L62.5886 136.895V270.164H0.856323V-0.00585938Z" fill="#EFEFEF"/>
  </g>
  
  <!-- A -->
  <g id="letter-a1" transform="translate(1110,0)">
    <path d="M95.494 270.164L92.2258 236.756H65.7173L62.4491 270.164H-0.00939941L35.2142 -0.00585938H126.36L165.578 270.164H95.494ZM78.79 104.939L71.8905 176.113H86.0526L78.79 104.939Z" fill="#EFEFEF"/>
  </g>
  
  <!-- A2 -->
  <g id="letter-a2" transform="translate(1290,0)">
    <path d="M95.8142 270.164L92.546 236.756H66.0375L62.7693 270.164H0.310791L35.5344 -0.00585938H126.68L165.899 270.164H95.8142ZM79.1102 104.939L72.2107 176.113H86.3728L79.1102 104.939Z" fill="#EFEFEF"/>
  </g>
  
  <!-- R2 -->
  <g id="letter-r2" transform="translate(1470,0)">
    <path d="M72.6331 51.5587V106.755H78.4431C83.5269 106.755 86.0688 103.608 86.0688 97.3133V61.3633C86.0688 57.732 85.5847 55.1901 84.6163 53.7375C83.648 52.285 81.7113 51.5587 78.8063 51.5587H72.6331ZM72.6331 164.856V270.164H0.00683594V-0.00585938H112.941C126.013 -0.00585938 136.786 4.23067 145.259 12.7037C153.974 21.1768 158.332 33.7653 158.332 50.4694V77.3411C158.332 100.097 149.738 115.591 132.55 123.822C139.57 126.485 145.743 131.327 151.069 138.347C156.395 145.126 159.058 153.114 159.058 162.314V249.102C159.058 257.817 160.269 264.233 162.69 268.348V270.164H91.1527C87.7635 265.564 86.0688 259.754 86.0688 252.733V174.66C86.0688 171.271 85.5847 168.85 84.6163 167.398C83.648 165.703 81.5903 164.856 78.4431 164.856H72.6331Z" fill="#EFEFEF"/>
  </g>
  
  <!-- T -->
  <g id="letter-t" transform="translate(1650,0)">
    <path d="M0.572021 -0.00585938H138.199V64.9946H105.517V270.164H33.2538V64.9946H0.572021V-0.00585938Z" fill="#EFEFEF"/>
  </g>
</svg> 