<svg width="163" height="271" viewBox="0 0 163 271" fill="none" xmlns="http://www.w3.org/2000/svg">
  <path d="M72.6331 51.5587V106.755H78.4431C83.5269 106.755 86.0688 103.608 86.0688 97.3133V61.3633C86.0688 57.732 85.5847 55.1901 84.6163 53.7375C83.648 52.285 81.7113 51.5587 78.8063 51.5587H72.6331ZM72.6331 164.856V270.164H0.00683594V-0.00585938H112.941C126.013 -0.00585938 136.786 4.23067 145.259 12.7037C153.974 21.1768 158.332 33.7653 158.332 50.4694V77.3411C158.332 100.097 149.738 115.591 132.55 123.822C139.57 126.485 145.743 131.327 151.069 138.347C156.395 145.126 159.058 153.114 159.058 162.314V249.102C159.058 257.817 160.269 264.233 162.69 268.348V270.164H91.1527C87.7635 265.564 86.0688 259.754 86.0688 252.733V174.66C86.0688 171.271 85.5847 168.85 84.6163 167.398C83.648 165.703 81.5903 164.856 78.4431 164.856H72.6331Z" fill="#EFEFEF"/>
</svg> 